<svg width="171" height="29" viewBox="0 0 171 29" fill="none" xmlns="http://www.w3.org/2000/svg">
<path d="M43.9886 7.05099H48.1033C48.4414 7.05099 48.7108 6.95204 48.9142 6.75124C49.1148 6.55044 49.2179 6.29725 49.2179 5.99168C49.2179 5.68611 49.1177 5.44457 48.9142 5.24085C48.7108 5.03423 48.4414 4.93238 48.1033 4.93238H43.9886V7.05099ZM42.0029 11.4308V3.75957C42.0029 3.58787 42.0573 3.44818 42.1662 3.33759C42.2751 3.227 42.4126 3.17462 42.5817 3.17462H48.2609C48.7595 3.17462 49.2007 3.24447 49.5847 3.38998C49.9687 3.53258 50.2839 3.73338 50.5274 3.99238C50.771 4.25139 50.9572 4.55114 51.0833 4.89454C51.2094 5.23794 51.2724 5.61045 51.2724 6.01205C51.2724 6.41366 51.2094 6.78034 51.0833 7.11502C50.9572 7.44969 50.771 7.74361 50.5274 7.99389C50.2839 8.24707 49.9687 8.44788 49.5847 8.5963C49.1979 8.74472 48.7566 8.81747 48.2609 8.81747H43.9886V11.4366C43.9886 11.6171 43.937 11.7626 43.8339 11.8673C43.7307 11.9721 43.5903 12.0245 43.4098 12.0245H42.5788C42.4098 12.0245 42.2693 11.9721 42.1633 11.8673C42.0544 11.7626 42 11.62 42 11.4366" fill="white"/>
<path d="M52.9115 11.4308V3.75957C52.9115 3.58787 52.9659 3.44818 53.0748 3.33759C53.1837 3.227 53.3212 3.17462 53.4903 3.17462H54.3213C54.4903 3.17462 54.6279 3.22701 54.7367 3.33177C54.8456 3.43654 54.9001 3.57914 54.9001 3.76248V6.65229H59.9317V3.76248C59.9317 3.59078 59.9862 3.45109 60.095 3.3405C60.2039 3.22992 60.3357 3.17753 60.4962 3.17753H61.3415C61.5106 3.17753 61.6481 3.22992 61.7512 3.33468C61.8544 3.43945 61.906 3.58205 61.906 3.76539V11.4366C61.906 11.6171 61.8544 11.7626 61.7512 11.8673C61.6481 11.9721 61.5106 12.0245 61.3415 12.0245H60.4962C60.3271 12.0245 60.1896 11.9721 60.0864 11.8673C59.9833 11.7626 59.9317 11.62 59.9317 11.4366V8.44497H54.9001V11.4366C54.9001 11.6171 54.8485 11.7626 54.7453 11.8673C54.6422 11.9721 54.5018 12.0245 54.3213 12.0245H53.4903C53.3212 12.0245 53.1808 11.9721 53.0748 11.8673C52.9659 11.7626 52.9115 11.62 52.9115 11.4366" fill="white"/>
<path d="M64.4533 11.4308V3.75957C64.4533 3.58787 64.5078 3.44818 64.6166 3.33759C64.7255 3.227 64.8631 3.17462 65.0321 3.17462H65.8631C66.0321 3.17462 66.1697 3.22701 66.2786 3.33177C66.3875 3.43654 66.4419 3.57914 66.4419 3.76248V11.4337C66.4419 11.6142 66.3903 11.7597 66.2872 11.8644C66.184 11.9692 66.0436 12.0216 65.8631 12.0216H65.0321C64.8631 12.0216 64.7255 11.9692 64.6166 11.8644C64.5078 11.7597 64.4533 11.6171 64.4533 11.4337" fill="white"/>
<path d="M68.9635 11.4308V3.75957C68.9635 3.58787 69.018 3.44818 69.124 3.33759C69.2329 3.227 69.3704 3.17462 69.5395 3.17462H70.3705C70.5395 3.17462 70.6771 3.22701 70.7859 3.33177C70.8948 3.43654 70.9493 3.57914 70.9493 3.76248V10.2318H77.0382C77.2073 10.2318 77.3448 10.2871 77.448 10.3977C77.5512 10.5083 77.6027 10.648 77.6027 10.8197V11.4337C77.6027 11.6142 77.5512 11.7597 77.448 11.8644C77.3448 11.9692 77.2073 12.0216 77.0382 12.0216H69.5424C69.3733 12.0216 69.2329 11.9692 69.1269 11.8644C69.018 11.7597 68.9664 11.6171 68.9664 11.4337" fill="white"/>
<path d="M82.0554 8.49735H85.1415L83.6056 5.29033L82.0554 8.49735ZM78.4336 11.5327C78.4336 11.4192 78.4622 11.3144 78.5195 11.2184L82.4222 3.53258C82.534 3.29394 82.746 3.17462 83.0555 3.17462H84.1415C84.4624 3.17462 84.6773 3.29394 84.789 3.53258L88.6917 11.2184C88.7376 11.3144 88.7634 11.4192 88.7634 11.5327C88.7634 11.6753 88.7175 11.7917 88.6229 11.8819C88.5284 11.9721 88.4023 12.0187 88.2418 12.0187H87.3106C86.9897 12.0187 86.7748 11.8994 86.663 11.6607L86.0154 10.2871H81.1958L80.5339 11.6607C80.4222 11.8994 80.2044 12.0187 79.8863 12.0187H78.9694C78.8004 12.0187 78.6685 11.975 78.574 11.8819C78.4794 11.7917 78.4336 11.6753 78.4336 11.5327Z" fill="white"/>
<path d="M90.173 11.4308V3.75955C90.173 3.57912 90.2246 3.43652 90.3278 3.32884C90.4309 3.22407 90.5713 3.17169 90.7518 3.17169H91.4567C91.7203 3.17169 91.9295 3.24735 92.09 3.40159L97.5858 8.91349V3.75955C97.5858 3.58785 97.6403 3.44816 97.7491 3.33757C97.858 3.22698 97.9956 3.1746 98.1646 3.1746H98.9956C99.1647 3.1746 99.3022 3.22699 99.4111 3.33175C99.52 3.43652 99.5744 3.57912 99.5744 3.76246V11.4337C99.5744 11.6141 99.52 11.7596 99.4111 11.8644C99.3022 11.9692 99.1647 12.0216 98.9956 12.0216H98.2907C98.0271 12.0216 97.815 11.9401 97.6575 11.7771L92.1616 6.27977V11.4337C92.1616 11.6141 92.1072 11.7596 91.9983 11.8644C91.8894 11.9692 91.7519 12.0216 91.5828 12.0216H90.7518C90.5828 12.0216 90.4452 11.9692 90.3364 11.8644C90.2275 11.7596 90.173 11.6171 90.173 11.4337" fill="white"/>
<path d="M100.927 4.37653V3.76248C100.927 3.58205 100.979 3.43945 101.082 3.33177C101.185 3.22701 101.325 3.17462 101.506 3.17462H110.314C110.492 3.17462 110.632 3.22701 110.738 3.33177C110.841 3.43654 110.893 3.57914 110.893 3.76248V4.37653C110.893 4.54823 110.844 4.68792 110.744 4.79851C110.646 4.90909 110.503 4.96439 110.314 4.96439H106.904V11.4337C106.904 11.6142 106.85 11.7597 106.744 11.8644C106.635 11.9692 106.497 12.0216 106.328 12.0216H105.497C105.328 12.0216 105.191 11.9692 105.082 11.8644C104.973 11.7597 104.919 11.6171 104.919 11.4337V4.96439H101.509C101.331 4.96439 101.191 4.90909 101.085 4.79851C100.981 4.68792 100.93 4.54823 100.93 4.37653" fill="white"/>
<path d="M112.257 11.4308V3.75957C112.257 3.58787 112.311 3.44818 112.42 3.33759C112.529 3.227 112.667 3.17462 112.836 3.17462H113.667C113.836 3.17462 113.973 3.22701 114.082 3.33177C114.191 3.43654 114.245 3.57914 114.245 3.76248V6.65229H119.277V3.76248C119.277 3.59078 119.332 3.45109 119.44 3.3405C119.549 3.22992 119.681 3.17753 119.842 3.17753H120.687C120.856 3.17753 120.993 3.22992 121.097 3.33468C121.2 3.43945 121.251 3.58205 121.251 3.76539V11.4366C121.251 11.6171 121.2 11.7626 121.097 11.8673C120.993 11.9721 120.856 12.0245 120.687 12.0245H119.842C119.673 12.0245 119.535 11.9721 119.432 11.8673C119.329 11.7626 119.277 11.62 119.277 11.4366V8.44497H114.245V11.4366C114.245 11.6171 114.194 11.7626 114.091 11.8673C113.988 11.9721 113.847 12.0245 113.667 12.0245H112.836C112.667 12.0245 112.529 11.9721 112.42 11.8673C112.311 11.7626 112.257 11.62 112.257 11.4366" fill="white"/>
<path d="M125.784 7.05099H129.899C130.237 7.05099 130.507 6.95204 130.71 6.75124C130.911 6.55044 131.014 6.29725 131.014 5.99168C131.014 5.68611 130.913 5.44457 130.71 5.24085C130.507 5.03423 130.237 4.93238 129.899 4.93238H125.784V7.05099ZM123.799 11.4308V3.75957C123.799 3.58787 123.853 3.44818 123.962 3.33759C124.071 3.227 124.208 3.17462 124.377 3.17462H130.057C130.555 3.17462 130.997 3.24447 131.381 3.38998C131.764 3.53258 132.08 3.73338 132.323 3.99238C132.567 4.25139 132.753 4.55114 132.879 4.89454C133.005 5.23794 133.068 5.61045 133.068 6.01205C133.068 6.69013 132.891 7.27216 132.532 7.75816C132.174 8.24416 131.653 8.56429 130.968 8.71853L133.223 11.2096C133.306 11.3057 133.349 11.4163 133.349 11.5385C133.349 11.6811 133.303 11.7975 133.214 11.8877C133.126 11.9779 132.999 12.0245 132.842 12.0245H131.701C131.552 12.0245 131.426 11.9954 131.329 11.9401C131.232 11.8819 131.128 11.7917 131.025 11.6665L128.489 8.77673H125.784V11.4396C125.784 11.62 125.733 11.7655 125.63 11.8703C125.527 11.975 125.386 12.0274 125.208 12.0274H124.377C124.208 12.0274 124.071 11.975 123.962 11.8703C123.853 11.7655 123.799 11.6229 123.799 11.4396" fill="white"/>
<path d="M137.498 5.64827C136.925 6.1721 136.639 6.82107 136.639 7.59518C136.639 8.36929 136.931 9.01826 137.512 9.54792C138.094 10.0776 138.828 10.3424 139.71 10.3424C140.593 10.3424 141.326 10.0776 141.908 9.54792C142.49 9.01826 142.782 8.36638 142.782 7.59518C142.782 6.82398 142.49 6.1721 141.908 5.64245C141.326 5.11279 140.593 4.84796 139.71 4.84796C138.828 4.84796 138.091 5.1157 137.498 5.64827ZM134.945 9.38495C134.69 8.82328 134.564 8.22669 134.564 7.59518C134.564 6.96367 134.69 6.36999 134.945 5.80542C135.2 5.24375 135.55 4.75484 135.994 4.3445C136.441 3.93417 136.988 3.60823 137.636 3.36377C138.283 3.11932 138.974 3 139.707 3C140.441 3 141.131 3.12223 141.779 3.36377C142.427 3.60823 142.971 3.93417 143.415 4.3445C143.856 4.75484 144.206 5.24084 144.464 5.80542C144.722 6.36708 144.851 6.96367 144.851 7.59518C144.851 8.22669 144.722 8.82037 144.464 9.38495C144.206 9.94661 143.856 10.4384 143.415 10.8517C142.974 11.2678 142.43 11.5938 141.779 11.8324C141.131 12.071 140.441 12.1904 139.707 12.1904C138.974 12.1904 138.283 12.071 137.636 11.8324C136.988 11.5938 136.441 11.2678 135.994 10.8517C135.547 10.4355 135.197 9.94661 134.945 9.38495Z" fill="white"/>
<path d="M148.716 7.05099H152.831C153.169 7.05099 153.438 6.95204 153.642 6.75124C153.842 6.55044 153.945 6.29725 153.945 5.99168C153.945 5.68611 153.845 5.44457 153.642 5.24085C153.438 5.03423 153.169 4.93238 152.831 4.93238H148.716V7.05099ZM146.728 11.4308V3.75957C146.728 3.58787 146.782 3.44818 146.891 3.33759C147 3.227 147.137 3.17462 147.306 3.17462H152.986C153.484 3.17462 153.925 3.24447 154.309 3.38998C154.693 3.53258 155.009 3.73338 155.255 3.99238C155.498 4.25139 155.685 4.55114 155.811 4.89454C155.937 5.23794 156 5.61045 156 6.01205C156 6.41366 155.937 6.78034 155.811 7.11502C155.685 7.44969 155.498 7.74361 155.255 7.99389C155.011 8.24707 154.696 8.44788 154.309 8.5963C153.925 8.74472 153.481 8.81747 152.986 8.81747H148.716V11.4366C148.716 11.6171 148.665 11.7626 148.561 11.8673C148.458 11.9721 148.318 12.0245 148.14 12.0245H147.309C147.14 12.0245 147.003 11.9721 146.894 11.8673C146.785 11.7626 146.73 11.62 146.73 11.4366" fill="white"/>
<path d="M156.564 3.6315C156.564 3.4889 156.602 3.3754 156.676 3.29392C156.751 3.21243 156.865 3.17169 157.014 3.17169H158.169C158.318 3.17169 158.447 3.19788 158.556 3.25027C158.665 3.30265 158.774 3.39577 158.888 3.52964L161.96 6.93747L165.032 3.52964C165.155 3.39577 165.269 3.30265 165.375 3.25027C165.484 3.19788 165.613 3.17169 165.762 3.17169H166.917C167.057 3.17169 167.169 3.21243 167.249 3.29392C167.33 3.3754 167.37 3.48599 167.37 3.6315C167.37 3.76537 167.318 3.88469 167.215 3.98945L162.931 8.58464V11.4337C162.931 11.6141 162.88 11.7596 162.777 11.8644C162.673 11.9692 162.533 12.0216 162.355 12.0216H161.579C161.41 12.0216 161.272 11.9692 161.163 11.8644C161.054 11.7596 161 11.6171 161 11.4337V8.58464L156.702 3.98945C156.607 3.87596 156.562 3.75664 156.562 3.6315" fill="white"/>
<path d="M42.0239 22.543V18.3494C42.0239 18.1777 42.0784 18.038 42.1873 17.9274C42.2961 17.8168 42.4337 17.7615 42.6027 17.7615H43.4337C43.6028 17.7615 43.7403 17.8139 43.8492 17.9187C43.9581 18.0235 44.0125 18.166 44.0125 18.3494V22.543C44.0125 22.9737 44.0698 23.3433 44.1873 23.6605C44.3048 23.9748 44.4796 24.2251 44.7088 24.4113C44.938 24.5976 45.2017 24.7343 45.4997 24.8187C45.7948 24.9031 46.1358 24.9468 46.5226 24.9468C46.9094 24.9468 47.2476 24.9031 47.5456 24.8187C47.8436 24.7343 48.1014 24.5976 48.3278 24.4113C48.5542 24.2251 48.7261 23.9748 48.8493 23.6605C48.9725 23.3462 49.0327 22.9737 49.0327 22.543V18.3494C49.0327 18.169 49.0871 18.0264 49.196 17.9187C49.3049 17.8139 49.4424 17.7615 49.6115 17.7615H50.4425C50.6201 17.7615 50.7605 17.8168 50.8666 17.9274C50.9697 18.038 51.0213 18.1777 51.0213 18.3494V22.543C51.0213 23.1919 50.9439 23.7652 50.7892 24.26C50.6345 24.7576 50.4253 25.1592 50.1617 25.4706C49.898 25.782 49.5714 26.0352 49.1817 26.236C48.792 26.4368 48.3822 26.5765 47.9553 26.658C47.5284 26.7395 47.0498 26.7802 46.5255 26.7802C46.0011 26.7802 45.5197 26.7395 45.087 26.658C44.6544 26.5765 44.2475 26.4368 43.8606 26.236C43.4738 26.0352 43.15 25.7791 42.8893 25.4706C42.6257 25.1621 42.4165 24.7576 42.2618 24.26C42.107 23.7652 42.0297 23.1919 42.0297 22.543" fill="white"/>
<path d="M53.4367 26.0207V18.3494C53.4367 18.169 53.4882 18.0264 53.5914 17.9216C53.6946 17.8168 53.835 17.7645 54.0155 17.7645H54.7204C54.984 17.7645 55.1932 17.8401 55.3536 17.9944L60.8495 23.5063V18.3523C60.8495 18.1806 60.9039 18.0409 61.0128 17.9303C61.1217 17.8198 61.2592 17.7645 61.4283 17.7645H62.2592C62.4283 17.7645 62.5658 17.8168 62.6747 17.9216C62.7836 18.0264 62.8381 18.169 62.8381 18.3494V26.0207C62.8381 26.2011 62.7836 26.3466 62.6747 26.4514C62.5658 26.5561 62.4283 26.6085 62.2592 26.6085H61.5544C61.2907 26.6085 61.0787 26.527 60.9211 26.3641L55.4253 20.8667V26.0207C55.4253 26.2011 55.3708 26.3466 55.2619 26.4514C55.153 26.5561 55.0155 26.6085 54.8464 26.6085H54.0155C53.8464 26.6085 53.706 26.5561 53.6 26.4514C53.4911 26.3466 53.4367 26.204 53.4367 26.0207Z" fill="white"/>
<path d="M65.3598 26.0206V18.3494C65.3598 18.1777 65.4142 18.038 65.5231 17.9274C65.632 17.8168 65.7695 17.7615 65.9386 17.7615H66.7695C66.9386 17.7615 67.0761 17.8139 67.185 17.9187C67.2939 18.0235 67.3484 18.166 67.3484 18.3465V26.0177C67.3484 26.1982 67.2968 26.3437 67.1936 26.4484C67.0905 26.5532 66.9501 26.6056 66.7695 26.6056H65.9386C65.7695 26.6056 65.6291 26.5532 65.5231 26.4484C65.4142 26.3437 65.3598 26.2011 65.3598 26.0177" fill="white"/>
<path d="M68.7581 18.265C68.7581 18.1224 68.8011 18.0031 68.8928 17.9071C68.9816 17.811 69.1106 17.7645 69.2796 17.7645H70.2109C70.5204 17.7645 70.7324 17.8838 70.8441 18.1224L73.9159 24.4928L76.9732 18.1224C77.0965 17.8838 77.3114 17.7645 77.6208 17.7645H78.5521C78.7211 17.7645 78.8501 17.811 78.9389 17.9071C79.0277 18.0031 79.0736 18.1224 79.0736 18.265C79.0736 18.3698 79.0507 18.4716 79.0019 18.5648L75.0993 26.2506C74.9875 26.4892 74.7697 26.6085 74.4517 26.6085H73.38C73.0591 26.6085 72.8442 26.4892 72.7324 26.2506L68.8298 18.5648C68.7839 18.4687 68.7581 18.3698 68.7581 18.265Z" fill="white"/>
<path d="M80.4832 26.0206V18.3494C80.4832 18.1777 80.5376 18.038 80.6465 17.9274C80.7554 17.8168 80.8929 17.7615 81.062 17.7615H88.6725C88.8415 17.7615 88.9791 17.8139 89.088 17.9187C89.1969 18.0235 89.2513 18.166 89.2513 18.3465V18.9634C89.2513 19.1351 89.1969 19.2748 89.088 19.3854C88.9791 19.496 88.8415 19.5513 88.6725 19.5513H82.4718V21.2392H86.8702C87.0478 21.2392 87.1882 21.2945 87.2942 21.4051C87.3974 21.5157 87.449 21.6554 87.449 21.8271V22.4411C87.449 22.6215 87.3974 22.7671 87.2942 22.8718C87.1911 22.9766 87.0507 23.029 86.8702 23.029H82.4718V24.8187H88.6725C88.8415 24.8187 88.9791 24.874 89.088 24.9846C89.1969 25.0952 89.2513 25.2349 89.2513 25.4066V26.0236C89.2513 26.204 89.1969 26.3495 89.088 26.4543C88.9791 26.559 88.8415 26.6114 88.6725 26.6114H81.062C80.8929 26.6114 80.7525 26.559 80.6465 26.4543C80.5376 26.3495 80.4832 26.2069 80.4832 26.0236" fill="white"/>
<path d="M93.2515 21.6408H97.3662C97.7043 21.6408 97.9737 21.5419 98.1771 21.3411C98.3777 21.1403 98.4809 20.8871 98.4809 20.5815C98.4809 20.2759 98.3806 20.0344 98.1771 19.8307C97.9737 19.6241 97.7043 19.5222 97.3662 19.5222H93.2515V21.6408ZM91.2629 26.0206V18.3494C91.2629 18.1777 91.3174 18.038 91.4262 17.9274C91.5351 17.8168 91.6727 17.7615 91.8417 17.7615H97.5209C98.0195 17.7615 98.4608 17.8314 98.8448 17.9769C99.2287 18.1195 99.5439 18.3203 99.7875 18.5793C100.031 18.8354 100.217 19.138 100.343 19.4815C100.469 19.8249 100.532 20.1974 100.532 20.599C100.532 21.277 100.355 21.8591 99.9967 22.3451C99.6385 22.8311 99.117 23.1512 98.4321 23.3054L100.687 25.7966C100.773 25.8926 100.813 26.0032 100.813 26.1254C100.813 26.268 100.767 26.3844 100.679 26.4775C100.59 26.5678 100.464 26.6143 100.306 26.6143H99.1657C99.0167 26.6143 98.8906 26.5852 98.7932 26.5299C98.6958 26.4717 98.5926 26.3815 98.4895 26.2593L95.9536 23.3695H93.2486V26.0323C93.2486 26.2127 93.1971 26.3582 93.0939 26.463C92.9907 26.5678 92.8503 26.6201 92.6727 26.6201H91.8417C91.6727 26.6201 91.5351 26.5678 91.4262 26.463C91.3174 26.3582 91.2629 26.2156 91.2629 26.0323" fill="white"/>
<path d="M102.341 24.2891L102.65 23.9312C102.762 23.7973 102.894 23.7304 103.045 23.7304C103.206 23.7304 103.352 23.7769 103.484 23.873C104.544 24.618 105.682 24.9905 106.894 24.9905C107.326 24.9905 107.719 24.9526 108.071 24.877C108.424 24.8013 108.716 24.6762 108.945 24.5016C109.175 24.3269 109.292 24.1145 109.292 23.87C109.292 23.5674 109.097 23.3462 108.707 23.2094C108.318 23.0726 107.667 22.9737 106.756 22.9184C106.183 22.8806 105.676 22.8224 105.235 22.7467C104.793 22.671 104.392 22.5663 104.028 22.4382C103.667 22.3102 103.369 22.153 103.134 21.9726C102.899 21.7922 102.719 21.571 102.593 21.3149C102.467 21.0559 102.404 20.7707 102.404 20.4564C102.404 19.6066 102.793 18.9169 103.573 18.3873C104.352 17.8576 105.389 17.5928 106.687 17.5928C107.289 17.5928 107.865 17.6568 108.415 17.7848C108.965 17.9129 109.398 18.0526 109.719 18.201C110.037 18.3494 110.301 18.4978 110.51 18.6521C110.745 18.8325 110.862 19.0479 110.862 19.2952C110.862 19.4873 110.796 19.6619 110.665 19.8249L110.369 20.1828C110.258 20.3167 110.114 20.3836 109.948 20.3836C109.825 20.3836 109.685 20.3371 109.524 20.241C108.604 19.6677 107.659 19.3796 106.69 19.3796C106.315 19.3796 105.954 19.4204 105.613 19.4989C105.269 19.5775 104.988 19.6939 104.768 19.8453C104.547 19.9966 104.435 20.1654 104.435 20.3516C104.435 20.4942 104.492 20.6135 104.604 20.7096C104.716 20.8056 104.891 20.8813 105.126 20.9395C105.361 20.9977 105.601 21.0413 105.845 21.0763C106.089 21.1083 106.398 21.1345 106.776 21.1548C107.369 21.1927 107.879 21.2451 108.312 21.312C108.745 21.3789 109.157 21.475 109.553 21.5972C109.948 21.7223 110.266 21.8795 110.51 22.0686C110.753 22.2607 110.948 22.4964 111.094 22.7758C111.241 23.0581 111.312 23.384 111.312 23.7565C111.312 24.3851 111.123 24.9293 110.748 25.3892C110.372 25.8461 109.851 26.1924 109.183 26.4281C108.516 26.6609 107.736 26.7802 106.842 26.7802C105.948 26.7802 105.12 26.6609 104.355 26.4194C103.59 26.1778 102.962 25.8519 102.472 25.4386C102.246 25.2553 102.134 25.0632 102.134 24.8566C102.134 24.65 102.206 24.4608 102.346 24.2891" fill="white"/>
<path d="M113.221 26.0206V18.3494C113.221 18.1777 113.275 18.038 113.384 17.9274C113.493 17.8168 113.63 17.7615 113.799 17.7615H114.63C114.799 17.7615 114.937 17.8139 115.046 17.9187C115.155 18.0235 115.209 18.166 115.209 18.3465V26.0177C115.209 26.1982 115.158 26.3437 115.054 26.4484C114.951 26.5532 114.811 26.6056 114.63 26.6056H113.799C113.63 26.6056 113.493 26.5532 113.384 26.4484C113.275 26.3437 113.221 26.2011 113.221 26.0177" fill="white"/>
<path d="M116.561 18.9664V18.3523C116.561 18.1719 116.613 18.0293 116.716 17.9216C116.819 17.8168 116.96 17.7645 117.14 17.7645H125.948C126.126 17.7645 126.266 17.8168 126.37 17.9216C126.473 18.0264 126.524 18.169 126.524 18.3523V18.9664C126.524 19.1381 126.476 19.2778 126.375 19.3883C126.275 19.4989 126.132 19.5542 125.946 19.5542H122.536V26.0236C122.536 26.204 122.481 26.3495 122.372 26.4543C122.264 26.559 122.126 26.6114 121.957 26.6114H121.126C120.957 26.6114 120.819 26.559 120.71 26.4543C120.602 26.3495 120.547 26.2069 120.547 26.0236V19.5542H117.137C116.96 19.5542 116.819 19.4989 116.713 19.3883C116.61 19.2778 116.559 19.1381 116.559 18.9664" fill="white"/>
<path d="M127.313 18.2213C127.313 18.0787 127.35 17.9652 127.424 17.8838C127.499 17.8023 127.611 17.7615 127.762 17.7615H128.917C129.066 17.7615 129.198 17.7877 129.304 17.8401C129.413 17.8925 129.522 17.9856 129.636 18.1195L132.708 21.5273L135.78 18.1195C135.903 17.9856 136.018 17.8925 136.127 17.8401C136.235 17.7877 136.364 17.7615 136.513 17.7615H137.668C137.809 17.7615 137.92 17.8023 138.001 17.8838C138.081 17.9652 138.121 18.0758 138.121 18.2213C138.121 18.3552 138.069 18.4745 137.966 18.5793L133.682 23.1745V26.0236C133.682 26.204 133.631 26.3495 133.528 26.4543C133.424 26.559 133.284 26.6114 133.106 26.6114H132.33C132.161 26.6114 132.023 26.559 131.914 26.4543C131.806 26.3495 131.754 26.2069 131.754 26.0236V23.1745L127.456 18.5793C127.361 18.4658 127.315 18.3465 127.315 18.2213" fill="white"/>
<path d="M30.8145 7.53738L25.3932 2.03131C24.0952 0.715906 23.2728 0.142599 21.5192 0.0145509C21.3902 0.00582037 21.2584 0 21.1295 0C19.5535 0 17.9747 0.686804 16.7941 1.88289C16.7683 1.90908 16.7425 1.93818 16.7196 1.96729L16.711 1.97893L16.1379 2.61335L15.5735 1.99057C15.5362 1.94691 15.5075 1.9149 15.4789 1.8858C14.3012 0.689714 12.7224 0.00291018 11.1464 0.00291018C11.0175 0.00291018 10.8857 0.00873056 10.7567 0.0174611C9.00595 0.145509 8.18072 0.715905 6.88269 2.03422L1.46135 7.54029C0.518635 8.49774 0 9.76949 0 11.1227C0 12.476 0.518635 13.7477 1.46135 14.7052L15.1093 28.5664C15.3843 28.8458 15.7511 29 16.1408 29C16.5305 29 16.8973 28.8458 17.1695 28.5664L30.8202 14.7052C32.7659 12.7292 32.7659 9.5134 30.8202 7.53738M3.41842 12.6709C3.02586 12.2723 2.81096 11.7426 2.81096 11.1809C2.81096 10.6193 3.02873 10.0896 3.41842 9.69092L8.40422 4.62719C9.15209 3.86764 10.1607 2.99749 11.3441 2.99749C12.0662 2.99749 12.751 3.32052 13.3786 3.95785C14.3442 4.93858 14.6823 5.90477 14.4158 6.9146C14.1895 7.77893 13.5476 8.5152 12.8914 9.18455L6.43855 15.7383L3.41842 12.6709ZM16.1351 25.5863L8.45006 17.7812L14.9029 11.2275C15.2038 10.9219 15.4445 10.6746 15.6508 10.4476L16.1351 9.92082L16.6193 10.4476C16.8256 10.6746 17.0635 10.9219 17.3672 11.2275L23.8201 17.7812L16.1351 25.5863ZM28.8546 12.6709L25.8344 15.7383L19.3816 9.18455C18.7254 8.5152 18.0835 7.77893 17.8572 6.9146C17.5907 5.90477 17.9317 4.93567 18.8973 3.95494C19.5248 3.31761 20.2097 2.99458 20.9317 2.99458C22.1152 2.99458 23.1266 3.86473 23.8717 4.62428L28.8575 9.68801C29.25 10.0867 29.4649 10.6164 29.4649 11.178C29.4649 11.7397 29.25 12.2693 28.8575 12.668" fill="white"/>
</svg>
