<svg width="126" height="61" viewBox="0 0 126 61" fill="none" xmlns="http://www.w3.org/2000/svg">
<path d="M1.98964 42.1239H6.10653C6.44483 42.1239 6.71432 42.0271 6.91787 41.8307C7.11856 41.6342 7.22177 41.3865 7.22177 41.0875C7.22177 40.7886 7.12142 40.5523 6.91787 40.353C6.71432 40.1508 6.44483 40.0512 6.10653 40.0512H1.98964V42.1239ZM0.00286692 46.409V38.9037C0.00286692 38.7357 0.0573383 38.5991 0.166281 38.4909C0.275224 38.3827 0.412836 38.3314 0.581984 38.3314H6.26421C6.76306 38.3314 7.20456 38.3998 7.58873 38.5421C7.9729 38.6816 8.28826 38.8781 8.53195 39.1315C8.77563 39.3849 8.96198 39.6782 9.08813 40.0141C9.21427 40.3501 9.27734 40.7146 9.27734 41.1075C9.27734 41.5004 9.21427 41.8591 9.08813 42.1866C8.96198 42.514 8.77563 42.8016 8.53195 43.0464C8.28826 43.2942 7.9729 43.4906 7.58873 43.6358C7.2017 43.781 6.76019 43.8522 6.26421 43.8522H1.98964V46.4147C1.98964 46.5912 1.93804 46.7336 1.83483 46.8361C1.73162 46.9386 1.59114 46.9899 1.41052 46.9899H0.579117C0.409969 46.9899 0.26949 46.9386 0.163414 46.8361C0.0544714 46.7336 0 46.5941 0 46.4147" fill="white"/>
<path d="M10.9172 46.409V38.9037C10.9172 38.7357 10.9717 38.5991 11.0807 38.4909C11.1896 38.3827 11.3272 38.3314 11.4964 38.3314H12.3278C12.4969 38.3314 12.6345 38.3827 12.7435 38.4852C12.8524 38.5877 12.9069 38.7272 12.9069 38.9066V41.7339H17.9412V38.9066C17.9412 38.7386 17.9957 38.6019 18.1046 38.4937C18.2135 38.3855 18.3454 38.3343 18.506 38.3343H19.3517C19.5209 38.3343 19.6585 38.3855 19.7617 38.488C19.8649 38.5905 19.9165 38.73 19.9165 38.9094V46.4147C19.9165 46.5912 19.8649 46.7336 19.7617 46.8361C19.6585 46.9386 19.5209 46.9899 19.3517 46.9899H18.506C18.3368 46.9899 18.1992 46.9386 18.096 46.8361C17.9928 46.7336 17.9412 46.5941 17.9412 46.4147V43.4878H12.9069V46.4147C12.9069 46.5912 12.8553 46.7336 12.7521 46.8361C12.6489 46.9386 12.5084 46.9899 12.3278 46.9899H11.4964C11.3272 46.9899 11.1867 46.9386 11.0807 46.8361C10.9717 46.7336 10.9172 46.5941 10.9172 46.4147" fill="white"/>
<path d="M22.4652 46.409V38.9037C22.4652 38.7357 22.5197 38.5991 22.6286 38.4909C22.7376 38.3827 22.8752 38.3314 23.0443 38.3314H23.8757C24.0449 38.3314 24.1825 38.3827 24.2914 38.4852C24.4004 38.5877 24.4549 38.7272 24.4549 38.9066V46.4119C24.4549 46.5884 24.4032 46.7308 24.3 46.8333C24.1968 46.9358 24.0563 46.987 23.8757 46.987H23.0443C22.8752 46.987 22.7376 46.9358 22.6286 46.8333C22.5197 46.7308 22.4652 46.5913 22.4652 46.4119" fill="white"/>
<path d="M26.9778 46.409V38.9037C26.9778 38.7357 27.0323 38.5991 27.1383 38.4909C27.2473 38.3827 27.3849 38.3314 27.554 38.3314H28.3854C28.5546 38.3314 28.6922 38.3827 28.8011 38.4852C28.9101 38.5877 28.9646 38.7272 28.9646 38.9066V45.236H35.0568C35.2259 45.236 35.3635 45.2901 35.4667 45.3983C35.5699 45.5065 35.6215 45.6431 35.6215 45.8111V46.4119C35.6215 46.5884 35.5699 46.7308 35.4667 46.8333C35.3635 46.9358 35.2259 46.987 35.0568 46.987H27.5569C27.3878 46.987 27.2473 46.9358 27.1412 46.8333C27.0323 46.7308 26.9807 46.5913 26.9807 46.4119" fill="white"/>
<path d="M40.0767 43.539H43.1643L41.6277 40.4014L40.0767 43.539ZM36.4529 46.5087C36.4529 46.3976 36.4816 46.2951 36.5389 46.2012L40.4436 38.6816C40.5554 38.4482 40.7676 38.3314 41.0772 38.3314H42.1638C42.4849 38.3314 42.6999 38.4482 42.8117 38.6816L46.7164 46.2012C46.7623 46.2951 46.7881 46.3976 46.7881 46.5087C46.7881 46.6482 46.7423 46.7621 46.6476 46.8503C46.553 46.9386 46.4269 46.9842 46.2663 46.9842H45.3346C45.0135 46.9842 44.7985 46.8674 44.6867 46.634L44.0387 45.2901H39.2166L38.5543 46.634C38.4425 46.8674 38.2246 46.9842 37.9064 46.9842H36.989C36.8198 46.9842 36.688 46.9415 36.5934 46.8503C36.4988 46.7621 36.4529 46.6482 36.4529 46.5087Z" fill="white"/>
<path d="M48.1986 46.4089V38.9036C48.1986 38.7271 48.2502 38.5876 48.3534 38.4822C48.4566 38.3797 48.5971 38.3285 48.7777 38.3285H49.483C49.7467 38.3285 49.956 38.4025 50.1166 38.5534L55.6153 43.9461V38.9036C55.6153 38.7356 55.6698 38.599 55.7787 38.4908C55.8877 38.3826 56.0253 38.3313 56.1944 38.3313H57.0258C57.195 38.3313 57.3326 38.3826 57.4416 38.4851C57.5505 38.5876 57.605 38.7271 57.605 38.9065V46.4118C57.605 46.5883 57.5505 46.7307 57.4416 46.8332C57.3326 46.9357 57.195 46.9869 57.0258 46.9869H56.3206C56.0568 46.9869 55.8447 46.9072 55.687 46.7478L50.1883 41.3693V46.4118C50.1883 46.5883 50.1338 46.7307 50.0248 46.8332C49.9159 46.9357 49.7783 46.9869 49.6091 46.9869H48.7777C48.6086 46.9869 48.471 46.9357 48.362 46.8332C48.2531 46.7307 48.1986 46.5912 48.1986 46.4118" fill="white"/>
<path d="M58.9583 39.5073V38.9066C58.9583 38.73 59.0099 38.5905 59.1131 38.4852C59.2163 38.3827 59.3568 38.3314 59.5374 38.3314H68.3503C68.528 38.3314 68.6685 38.3827 68.7746 38.4852C68.8778 38.5877 68.9294 38.7272 68.9294 38.9066V39.5073C68.9294 39.6753 68.8807 39.812 68.7803 39.9202C68.6828 40.0284 68.5395 40.0825 68.3503 40.0825H64.9386V46.4119C64.9386 46.5884 64.8842 46.7308 64.7781 46.8333C64.6692 46.9358 64.5315 46.987 64.3624 46.987H63.531C63.3618 46.987 63.2242 46.9358 63.1153 46.8333C63.0063 46.7308 62.9519 46.5913 62.9519 46.4119V40.0825H59.5402C59.3625 40.0825 59.222 40.0284 59.1159 39.9202C59.0127 39.812 58.9611 39.6753 58.9611 39.5073" fill="white"/>
<path d="M70.2941 46.409V38.9037C70.2941 38.7357 70.3485 38.5991 70.4575 38.4909C70.5664 38.3827 70.704 38.3314 70.8732 38.3314H71.7046C71.8737 38.3314 72.0114 38.3827 72.1203 38.4852C72.2292 38.5877 72.2837 38.7272 72.2837 38.9066V41.7339H77.318V38.9066C77.318 38.7386 77.3725 38.6019 77.4814 38.4937C77.5904 38.3855 77.7223 38.3343 77.8828 38.3343H78.7285C78.8977 38.3343 79.0353 38.3855 79.1385 38.488C79.2417 38.5905 79.2933 38.73 79.2933 38.9094V46.4147C79.2933 46.5912 79.2417 46.7336 79.1385 46.8361C79.0353 46.9386 78.8977 46.9899 78.7285 46.9899H77.8828C77.7137 46.9899 77.576 46.9386 77.4728 46.8361C77.3696 46.7336 77.318 46.5941 77.318 46.4147V43.4878H72.2837V46.4147C72.2837 46.5912 72.2321 46.7336 72.1289 46.8361C72.0257 46.9386 71.8852 46.9899 71.7046 46.9899H70.8732C70.704 46.9899 70.5664 46.9386 70.4575 46.8361C70.3485 46.7336 70.2941 46.5941 70.2941 46.4147" fill="white"/>
<path d="M83.8288 42.1239H87.9457C88.284 42.1239 88.5535 42.0271 88.757 41.8307C88.9577 41.6342 89.0609 41.3865 89.0609 41.0875C89.0609 40.7886 88.9606 40.5523 88.757 40.353C88.5535 40.1508 88.284 40.0512 87.9457 40.0512H83.8288V42.1239ZM81.842 46.409V38.9037C81.842 38.7357 81.8965 38.5991 82.0055 38.4909C82.1144 38.3827 82.252 38.3314 82.4212 38.3314H88.1034C88.6022 38.3314 89.0437 38.3998 89.4279 38.5421C89.8121 38.6816 90.1274 38.8781 90.3711 39.1315C90.6148 39.3849 90.8012 39.6782 90.9273 40.0141C91.0535 40.3501 91.1165 40.7146 91.1165 41.1075C91.1165 41.7709 90.9388 42.3403 90.5804 42.8158C90.222 43.2913 89.7003 43.6045 89.0151 43.7554L91.2713 46.1926C91.3545 46.2866 91.3975 46.3948 91.3975 46.5144C91.3975 46.6539 91.3516 46.7678 91.2627 46.856C91.1739 46.9443 91.0477 46.9899 90.89 46.9899H89.749C89.5999 46.9899 89.4738 46.9614 89.3763 46.9073C89.2788 46.8503 89.1756 46.7621 89.0724 46.6397L86.5352 43.8123H83.8288V46.4176C83.8288 46.5941 83.7772 46.7365 83.674 46.839C83.5708 46.9415 83.4303 46.9927 83.2526 46.9927H82.4212C82.252 46.9927 82.1144 46.9415 82.0055 46.839C81.8965 46.7365 81.842 46.5969 81.842 46.4176" fill="white"/>
<path d="M95.5488 40.7515C94.9754 41.264 94.6887 41.8989 94.6887 42.6563C94.6887 43.4137 94.9811 44.0486 95.5631 44.5668C96.1451 45.085 96.879 45.3441 97.762 45.3441C98.645 45.3441 99.379 45.085 99.9609 44.5668C100.543 44.0486 100.835 43.4108 100.835 42.6563C100.835 41.9018 100.543 41.264 99.9609 40.7458C99.379 40.2276 98.645 39.9685 97.762 39.9685C96.879 39.9685 96.1422 40.2305 95.5488 40.7515ZM92.9943 44.4074C92.7392 43.8578 92.613 43.2742 92.613 42.6563C92.613 42.0385 92.7392 41.4576 92.9943 40.9053C93.2495 40.3557 93.5993 39.8774 94.0436 39.4759C94.4909 39.0745 95.0384 38.7556 95.6864 38.5164C96.3343 38.2773 97.0252 38.1605 97.7592 38.1605C98.4931 38.1605 99.184 38.2801 99.8319 38.5164C100.48 38.7556 101.025 39.0745 101.469 39.4759C101.91 39.8774 102.26 40.3529 102.518 40.9053C102.776 41.4548 102.905 42.0385 102.905 42.6563C102.905 43.2742 102.776 43.855 102.518 44.4074C102.26 44.9569 101.91 45.4381 101.469 45.8424C101.027 46.2495 100.483 46.5684 99.8319 46.8019C99.184 47.0353 98.4931 47.1521 97.7592 47.1521C97.0252 47.1521 96.3343 47.0353 95.6864 46.8019C95.0384 46.5684 94.4909 46.2495 94.0436 45.8424C93.5964 45.4352 93.2466 44.9569 92.9943 44.4074Z" fill="white"/>
<path d="M106.773 42.1239H110.889C111.228 42.1239 111.497 42.0271 111.701 41.8307C111.902 41.6342 112.005 41.3865 112.005 41.0875C112.005 40.7886 111.904 40.5523 111.701 40.353C111.497 40.1508 111.228 40.0512 110.889 40.0512H106.773V42.1239ZM104.783 46.409V38.9037C104.783 38.7357 104.837 38.5991 104.946 38.4909C105.055 38.3827 105.193 38.3314 105.362 38.3314H111.044C111.543 38.3314 111.985 38.3998 112.369 38.5421C112.753 38.6816 113.068 38.8781 113.315 39.1315C113.559 39.3849 113.745 39.6782 113.871 40.0141C113.997 40.3501 114.06 40.7146 114.06 41.1075C114.06 41.5004 113.997 41.8591 113.871 42.1866C113.745 42.514 113.559 42.8016 113.315 43.0464C113.071 43.2942 112.756 43.4906 112.369 43.6358C111.985 43.781 111.54 43.8522 111.044 43.8522H106.773V46.4147C106.773 46.5912 106.721 46.7336 106.618 46.8361C106.515 46.9386 106.374 46.9899 106.196 46.9899H105.365C105.196 46.9899 105.058 46.9386 104.949 46.8361C104.84 46.7336 104.786 46.5941 104.786 46.4147" fill="white"/>
<path d="M114.625 38.7784C114.625 38.6388 114.662 38.5278 114.737 38.4481C114.811 38.3684 114.926 38.3285 115.075 38.3285H116.231C116.38 38.3285 116.509 38.3541 116.618 38.4054C116.727 38.4566 116.835 38.5477 116.95 38.6787L120.023 42.0128L123.097 38.6787C123.22 38.5477 123.335 38.4566 123.441 38.4054C123.55 38.3541 123.679 38.3285 123.828 38.3285H124.983C125.124 38.3285 125.236 38.3684 125.316 38.4481C125.396 38.5278 125.436 38.636 125.436 38.7784C125.436 38.9093 125.385 39.0261 125.281 39.1286L120.995 43.6244V46.4118C120.995 46.5883 120.944 46.7307 120.841 46.8332C120.737 46.9357 120.597 46.9869 120.419 46.9869H119.642C119.473 46.9869 119.335 46.9357 119.226 46.8332C119.118 46.7307 119.063 46.5912 119.063 46.4118V43.6244L114.763 39.1286C114.668 39.0175 114.622 38.9008 114.622 38.7784" fill="white"/>
<path d="M14.6472 56.3144V52.2116C14.6472 52.0436 14.7017 51.9069 14.8106 51.7987C14.9196 51.6905 15.0572 51.6364 15.2263 51.6364H16.0577C16.2269 51.6364 16.3645 51.6877 16.4734 51.7902C16.5824 51.8927 16.6369 52.0322 16.6369 52.2116V56.3144C16.6369 56.7358 16.6942 57.0974 16.8117 57.4078C16.9293 57.7153 17.1042 57.9601 17.3335 58.1423C17.5629 58.3246 17.8266 58.4584 18.1248 58.541C18.4201 58.6235 18.7612 58.6662 19.1483 58.6662C19.5353 58.6662 19.8736 58.6235 20.1718 58.541C20.4699 58.4584 20.728 58.3246 20.9544 58.1423C21.1809 57.9601 21.3529 57.7153 21.4762 57.4078C21.5995 57.1003 21.6597 56.7358 21.6597 56.3144V52.2116C21.6597 52.035 21.7142 51.8955 21.8231 51.7902C21.9321 51.6877 22.0697 51.6364 22.2388 51.6364H23.0702C23.248 51.6364 23.3885 51.6905 23.4945 51.7987C23.5977 51.9069 23.6493 52.0436 23.6493 52.2116V56.3144C23.6493 56.9494 23.5719 57.5103 23.4171 57.9943C23.2623 58.4812 23.053 58.8741 22.7893 59.1787C22.5255 59.4834 22.1987 59.7311 21.8088 59.9276C21.4189 60.124 21.0089 60.2607 20.5817 60.3404C20.1546 60.4201 19.6758 60.46 19.1511 60.46C18.6265 60.46 18.1449 60.4201 17.712 60.3404C17.279 60.2607 16.8719 60.124 16.4849 59.9276C16.0979 59.7311 15.7739 59.4805 15.513 59.1787C15.2493 58.8769 15.04 58.4812 14.8852 57.9943C14.7304 57.5103 14.6529 56.9494 14.6529 56.3144" fill="white"/>
<path d="M26.066 59.7169V52.2116C26.066 52.035 26.1176 51.8955 26.2209 51.793C26.3241 51.6905 26.4645 51.6393 26.6452 51.6393H27.3504C27.6142 51.6393 27.8235 51.7133 27.984 51.8642L33.4828 57.2569V52.2144C33.4828 52.0464 33.5372 51.9098 33.6462 51.8016C33.7551 51.6934 33.8927 51.6393 34.0619 51.6393H34.8933C35.0624 51.6393 35.2 51.6905 35.309 51.793C35.4179 51.8955 35.4724 52.035 35.4724 52.2116V59.7169C35.4724 59.8934 35.4179 60.0358 35.309 60.1383C35.2 60.2408 35.0624 60.292 34.8933 60.292H34.188C33.9243 60.292 33.7121 60.2123 33.5544 60.0529L28.0557 54.6744V59.7169C28.0557 59.8934 28.0012 60.0358 27.8923 60.1383C27.7833 60.2408 27.6457 60.292 27.4766 60.292H26.6452C26.476 60.292 26.3355 60.2408 26.2295 60.1383C26.1205 60.0358 26.066 59.8963 26.066 59.7169Z" fill="white"/>
<path d="M37.9955 59.7169V52.2116C37.9955 52.0436 38.05 51.9069 38.1589 51.7987C38.2678 51.6905 38.4054 51.6364 38.5746 51.6364H39.406C39.5752 51.6364 39.7128 51.6877 39.8217 51.7902C39.9307 51.8927 39.9851 52.0322 39.9851 52.2087V59.714C39.9851 59.8905 39.9335 60.0329 39.8303 60.1354C39.7271 60.2379 39.5866 60.2892 39.406 60.2892H38.5746C38.4054 60.2892 38.265 60.2379 38.1589 60.1354C38.05 60.0329 37.9955 59.8934 37.9955 59.714" fill="white"/>
<path d="M41.3956 52.129C41.3956 51.9895 41.4386 51.8728 41.5304 51.7788C41.6192 51.6848 41.7483 51.6393 41.9174 51.6393H42.8492C43.1588 51.6393 43.3709 51.756 43.4827 51.9895L46.5561 58.2221L49.6151 51.9895C49.7384 51.756 49.9534 51.6393 50.263 51.6393H51.1948C51.3639 51.6393 51.4929 51.6848 51.5818 51.7788C51.6707 51.8728 51.7165 51.9895 51.7165 52.129C51.7165 52.2315 51.6936 52.3312 51.6449 52.4223L47.7401 59.9418C47.6283 60.1753 47.4104 60.292 47.0922 60.292H46.02C45.6989 60.292 45.4839 60.1753 45.372 59.9418L41.4673 52.4223C41.4214 52.3283 41.3956 52.2315 41.3956 52.129Z" fill="white"/>
<path d="M53.1268 59.7169V52.2116C53.1268 52.0436 53.1813 51.9069 53.2902 51.7987C53.3992 51.6905 53.5368 51.6364 53.7059 51.6364H61.3205C61.4896 51.6364 61.6272 51.6877 61.7362 51.7902C61.8451 51.8927 61.8996 52.0322 61.8996 52.2087V52.8123C61.8996 52.9803 61.8451 53.117 61.7362 53.2252C61.6272 53.3334 61.4896 53.3875 61.3205 53.3875H55.1165V55.0389H59.5172C59.6949 55.0389 59.8354 55.093 59.9415 55.2011C60.0447 55.3093 60.0963 55.446 60.0963 55.614V56.2148C60.0963 56.3913 60.0447 56.5337 59.9415 56.6362C59.8383 56.7387 59.6978 56.7899 59.5172 56.7899H55.1165V58.541H61.3205C61.4896 58.541 61.6272 58.5951 61.7362 58.7032C61.8451 58.8114 61.8996 58.9481 61.8996 59.1161V59.7197C61.8996 59.8962 61.8451 60.0386 61.7362 60.1411C61.6272 60.2436 61.4896 60.2949 61.3205 60.2949H53.7059C53.5368 60.2949 53.3963 60.2436 53.2902 60.1411C53.1813 60.0386 53.1268 59.8991 53.1268 59.7197" fill="white"/>
<path d="M65.902 55.4318H70.0189C70.3572 55.4318 70.6267 55.335 70.8302 55.1385C71.0309 54.942 71.1341 54.6943 71.1341 54.3954C71.1341 54.0964 71.0338 53.8601 70.8302 53.6608C70.6267 53.4586 70.3572 53.359 70.0189 53.359H65.902V55.4318ZM63.9124 59.7169V52.2116C63.9124 52.0436 63.9668 51.9069 64.0758 51.7987C64.1847 51.6905 64.3223 51.6364 64.4915 51.6364H70.1737C70.6725 51.6364 71.1141 51.7047 71.4982 51.8471C71.8824 51.9866 72.1978 52.1831 72.4414 52.4365C72.6851 52.687 72.8715 52.9832 72.9976 53.3191C73.1238 53.6551 73.1868 54.0195 73.1868 54.4125C73.1868 55.0759 73.0091 55.6453 72.6507 56.1208C72.2924 56.5963 71.7706 56.9095 71.0854 57.0604L73.3417 59.4976C73.4277 59.5916 73.4678 59.6998 73.4678 59.8194C73.4678 59.9589 73.4219 60.0728 73.3331 60.1639C73.2442 60.2521 73.118 60.2977 72.9604 60.2977H71.8193C71.6702 60.2977 71.5441 60.2692 71.4466 60.2151C71.3491 60.1582 71.2459 60.0699 71.1427 59.9503L68.6055 57.123H65.8991V59.7283C65.8991 59.9048 65.8475 60.0471 65.7443 60.1496C65.6411 60.2521 65.5006 60.3034 65.3229 60.3034H64.4915C64.3223 60.3034 64.1847 60.2521 64.0758 60.1496C63.9668 60.0471 63.9124 59.9076 63.9124 59.7283" fill="white"/>
<path d="M74.9958 58.0228L75.3055 57.6726C75.4173 57.5416 75.5492 57.4761 75.7011 57.4761C75.8617 57.4761 76.0079 57.5217 76.1398 57.6156C77.2005 58.3445 78.3387 58.709 79.5514 58.709C79.9843 58.709 80.3771 58.672 80.7297 58.5979C81.0823 58.5239 81.3747 58.4015 81.6041 58.2306C81.8335 58.0598 81.951 57.852 81.951 57.6128C81.951 57.3167 81.756 57.1003 81.3661 56.9665C80.9762 56.8327 80.3254 56.7358 79.4138 56.6817C78.8404 56.6447 78.3329 56.5878 77.8914 56.5138C77.4499 56.4397 77.0486 56.3372 76.6845 56.212C76.3232 56.0867 76.0251 55.9329 75.79 55.7564C75.5549 55.5799 75.3743 55.3635 75.2481 55.1129C75.122 54.8595 75.0589 54.5805 75.0589 54.273C75.0589 53.4416 75.4488 52.7668 76.2286 52.2486C77.0084 51.7304 78.0463 51.4713 79.345 51.4713C79.947 51.4713 80.5233 51.5339 81.0737 51.6592C81.6242 51.7845 82.0571 51.9212 82.3782 52.0664C82.6964 52.2116 82.9601 52.3568 83.1694 52.5077C83.4045 52.6842 83.5221 52.8949 83.5221 53.1369C83.5221 53.3249 83.4561 53.4957 83.3243 53.6551L83.029 54.0054C82.9171 54.1363 82.7738 54.2018 82.6075 54.2018C82.4842 54.2018 82.3438 54.1563 82.1832 54.0623C81.2629 53.5014 80.3169 53.2195 79.3478 53.2195C78.9723 53.2195 78.611 53.2594 78.2699 53.3362C77.9258 53.4131 77.6449 53.527 77.4241 53.6751C77.2034 53.8231 77.0916 53.9883 77.0916 54.1705C77.0916 54.31 77.1489 54.4267 77.2607 54.5207C77.3725 54.6147 77.5474 54.6887 77.7825 54.7456C78.0176 54.8026 78.2584 54.8453 78.5021 54.8795C78.7458 54.9108 79.0554 54.9364 79.4338 54.9563C80.0273 54.9933 80.5376 55.0446 80.9705 55.1101C81.4034 55.1756 81.8162 55.2695 82.2119 55.3891C82.6075 55.5115 82.9257 55.6653 83.1694 55.8504C83.4131 56.0383 83.6081 56.2689 83.7543 56.5422C83.9005 56.8184 83.9722 57.1373 83.9722 57.5018C83.9722 58.1168 83.783 58.6492 83.4074 59.0991C83.0318 59.5461 82.51 59.8849 81.842 60.1155C81.1741 60.3433 80.3943 60.46 79.4998 60.46C78.6053 60.46 77.7768 60.3433 77.0113 60.107C76.2458 59.8707 75.618 59.5518 75.1277 59.1475C74.9012 58.9681 74.7894 58.7802 74.7894 58.578C74.7894 58.3759 74.8611 58.1908 75.0016 58.0228" fill="white"/>
<path d="M85.8816 59.7169V52.2116C85.8816 52.0436 85.9361 51.9069 86.045 51.7987C86.154 51.6905 86.2916 51.6364 86.4607 51.6364H87.2921C87.4613 51.6364 87.5989 51.6877 87.7078 51.7902C87.8168 51.8927 87.8712 52.0322 87.8712 52.2087V59.714C87.8712 59.8905 87.8196 60.0329 87.7164 60.1354C87.6132 60.2379 87.4727 60.2892 87.2921 60.2892H86.4607C86.2916 60.2892 86.154 60.2379 86.045 60.1354C85.9361 60.0329 85.8816 59.8934 85.8816 59.714" fill="white"/>
<path d="M89.2242 52.8152V52.2144C89.2242 52.0379 89.2758 51.8984 89.379 51.793C89.4822 51.6905 89.6227 51.6393 89.8033 51.6393H98.6162C98.7939 51.6393 98.9344 51.6905 99.0376 51.793C99.1408 51.8955 99.1925 52.035 99.1925 52.2144V52.8152C99.1925 52.9832 99.1437 53.1198 99.0434 53.228C98.943 53.3362 98.7997 53.3903 98.6133 53.3903H95.2017V59.7197C95.2017 59.8963 95.1472 60.0386 95.0383 60.1411C94.9293 60.2436 94.7917 60.2949 94.6226 60.2949H93.7912C93.622 60.2949 93.4844 60.2436 93.3755 60.1411C93.2665 60.0386 93.2121 59.8991 93.2121 59.7197V53.3903H89.8004C89.6227 53.3903 89.4822 53.3362 89.3761 53.228C89.2729 53.1198 89.2213 52.9832 89.2213 52.8152" fill="white"/>
<path d="M99.9811 52.0863C99.9811 51.9468 100.018 51.8357 100.093 51.756C100.167 51.6763 100.279 51.6364 100.431 51.6364H101.587C101.736 51.6364 101.868 51.662 101.974 51.7133C102.083 51.7645 102.191 51.8556 102.306 51.9866L105.379 55.3207L108.453 51.9866C108.576 51.8556 108.691 51.7645 108.8 51.7133C108.909 51.662 109.038 51.6364 109.187 51.6364H110.342C110.483 51.6364 110.594 51.6763 110.675 51.756C110.755 51.8357 110.795 51.9439 110.795 52.0863C110.795 52.2172 110.743 52.334 110.64 52.4365L106.354 56.9323V59.7197C106.354 59.8962 106.303 60.0386 106.199 60.1411C106.096 60.2436 105.956 60.2949 105.778 60.2949H105.001C104.832 60.2949 104.694 60.2436 104.585 60.1411C104.476 60.0386 104.425 59.8991 104.425 59.7197V56.9323L100.124 52.4365C100.03 52.3254 99.9839 52.2087 99.9839 52.0863" fill="white"/>
<path d="M77.4097 7.91438L71.9855 2.52741C70.6868 1.24046 69.864 0.679554 68.1094 0.554275C67.9804 0.545734 67.8485 0.540039 67.7195 0.540039C66.1427 0.540039 64.563 1.21199 63.3819 2.3822C63.3561 2.40783 63.3303 2.4363 63.3073 2.46477L63.2987 2.47616L62.7253 3.09686L62.1606 2.48755C62.1233 2.44484 62.0946 2.41352 62.0659 2.38505C60.8876 1.21483 59.308 0.542886 57.7312 0.542886C57.6022 0.542886 57.4703 0.548581 57.3413 0.557122C55.5896 0.682401 54.7639 1.24046 53.4652 2.53026L48.041 7.91723C47.0978 8.85397 46.5789 10.0982 46.5789 11.4222C46.5789 12.7461 47.0978 13.9904 48.041 14.9271L61.6961 28.4885C61.9713 28.7618 62.3383 28.9127 62.7282 28.9127C63.1181 28.9127 63.4851 28.7618 63.7574 28.4885L77.4154 14.9271C79.3621 12.9938 79.3621 9.84765 77.4154 7.91438M49.9991 12.9369C49.6063 12.5468 49.3913 12.0286 49.3913 11.4791C49.3913 10.9296 49.6092 10.4114 49.9991 10.0213L54.9875 5.06714C55.7358 4.32401 56.745 3.47269 57.929 3.47269C58.6515 3.47269 59.3366 3.78873 59.9645 4.41228C60.9306 5.3718 61.2689 6.31708 61.0023 7.30507C60.7758 8.1507 60.1336 8.87105 59.4771 9.52591L53.0208 15.9379L49.9991 12.9369ZM62.7225 25.5729L55.0334 17.9366L61.4897 11.5247C61.7907 11.2257 62.0315 10.9837 62.238 10.7616L62.7225 10.2463L63.207 10.7616C63.4134 10.9837 63.6514 11.2257 63.9553 11.5247L70.4116 17.9366L62.7225 25.5729ZM75.4487 12.9369L72.427 15.9379L65.9707 9.52591C65.3142 8.87105 64.672 8.1507 64.4455 7.30507C64.1789 6.31708 64.52 5.36895 65.4862 4.40943C66.114 3.78589 66.7992 3.46984 67.5217 3.46984C68.7057 3.46984 69.7178 4.32117 70.4632 5.0643L75.4516 10.0185C75.8444 10.4086 76.0594 10.9268 76.0594 11.4763C76.0594 12.0258 75.8444 12.544 75.4516 12.9341" fill="white"/>
</svg>
