<svg xmlns="http://www.w3.org/2000/svg">
    <symbol viewBox="0 0 35 35" id="ico-linkedin">
        <path d="M17.5 0C7.8 0 0 7.8 0 17.5S7.8 35 17.5 35 35 27.2 35 17.5C35 7.8 27.2 0 17.5 0zM13.1 26H8.8V10.7h4.4V26zM11.1 9.7c-1.1 0-2-0.9-2-2.1s0.9-2.1 2.1-2.1c1.1 0 2.1 0.9 2.1 2.1C13.1 8.8 12.2 9.7 11.1 9.7zM28.4 26h-4.4V16.5c0-1.1-0.3-1.9-1.7-1.9 -2.3 0-2.7 1.9-2.7 1.9v9.5h-4.4V10.7h4.4v1.5c0.6-0.5 2.2-1.5 4.4-1.5 1.4 0 4.4 0.8 4.4 6V26z"/>
    </symbol>
    <symbol viewBox="0 0 35 35" id="ico-facebook">
        <path d="M17.5 0C7.8 0 0 7.8 0 17.5S7.8 35 17.5 35 35 27.2 35 17.5C35 7.8 27.2 0 17.5 0zM23.6 9.6h-2.2c-0.8 0-1.4 0.2-1.6 0.5 -0.3 0.3-0.4 0.9-0.4 1.5v2.7h4.2l-0.5 4.2h-3.6v10.8h-4.3V18.5h-3.6V14.3h3.6v-3.1c0-1.8 0.5-3.1 1.5-4.1 1-1 2.3-1.5 3.9-1.5 1.4 0 2.5 0.1 3.2 0.2C23.6 5.9 23.6 9.6 23.6 9.6z"/>
    </symbol>
    <symbol viewBox="0 0 35 35" id="ico-twitter">
        <path d="M17.5 0C7.8 0 0 7.8 0 17.5S7.8 35 17.5 35 35 27.2 35 17.5C35 7.8 27.2 0 17.5 0zM26.2 13.6l0 0.6c0 5.7-4.3 12.3-12.3 12.3 -2.4 0-4.7-0.7-6.6-1.9 0.3 0 0.7 0.1 1 0.1 2 0 3.9-0.7 5.4-1.8 -1.9 0-3.5-1.3-4-3 0.3 0.1 0.5 0.1 0.8 0.1 0.4 0 0.8 0 1.1-0.1 -2-0.4-3.5-2.1-3.5-4.2v-0.1c0.6 0.3 1.2 0.5 2 0.5 -1.2-0.8-1.9-2.1-1.9-3.6 0-0.8 0.2-1.5 0.6-2.2 2.1 2.6 5.3 4.3 8.9 4.5 -0.1-0.3-0.1-0.6-0.1-1 0-2.4 1.9-4.3 4.3-4.3 1.2 0 2.4 0.5 3.1 1.4 1-0.2 1.9-0.6 2.7-1 -0.3 1-1 1.9-1.9 2.4 0.9-0.1 1.7-0.3 2.5-0.7C27.8 12.2 27 13 26.2 13.6z"/>
    </symbol>
    <symbol viewBox="0 0 35 35" id="ico-youtube">
        <path d="M15.2 24.5c0 0.3 0 0.5 0 0.6 0 0.2 0 0.2-0.1 0.3 0 0.2-0.2 0.3-0.4 0.4 -0.2 0.1-0.3 0-0.5-0.3 0 0 0-0.1 0-0.3 0-0.2 0-0.4 0-0.6l0-3.8h-1.4l0 3.8c0 0.3 0 0.5 0 0.7s0 0.4 0 0.5c0 0.2 0 0.3 0.1 0.5 0 0.2 0.1 0.3 0.3 0.5 0.2 0.1 0.4 0.2 0.6 0.2 0.2 0 0.4 0 0.7-0.1 0.2-0.1 0.4-0.2 0.6-0.3 0.2-0.1 0.3-0.3 0.4-0.4l0 0.8L16.7 26.8v-6.1h-1.4L15.2 24.5 15.2 24.5z"/>
        <path d="M20.1 20.5c-0.3 0-0.7 0.2-1.2 0.5V18.6h-1.4v8.2l1.2 0 0.1-0.5c0.4 0.3 0.7 0.5 1 0.6 0.3 0.1 0.6 0 0.8-0.1 0.2-0.1 0.4-0.3 0.5-0.6 0.1-0.3 0.2-0.6 0.2-1v-3.2c0-0.6-0.2-1-0.6-1.3C20.5 20.5 20.3 20.5 20.1 20.5zM20.2 25.3c0 0.1-0.1 0.2-0.2 0.3 -0.1 0.1-0.3 0.1-0.4 0.1 -0.2 0-0.3 0-0.4-0.1 -0.1-0.1-0.2-0.2-0.2-0.3v-3.6c0-0.1 0.1-0.2 0.2-0.3 0.1-0.1 0.3-0.1 0.4-0.1 0.2 0 0.3 0 0.4 0.1 0.1 0.1 0.2 0.2 0.2 0.3V25.3z"/>
        <polygon points="13.2 18.6 8.6 18.6 8.6 19.6 10.1 19.6 10.1 26.8 11.5 26.8 11.5 19.6 13.2 19.6 "/>
        <path d="M17.5 0C7.8 0 0 7.8 0 17.5S7.8 35 17.5 35 35 27.2 35 17.5C35 7.8 27.2 0 17.5 0zM20 12.7V8.5h1.3v4.9c0 0.1 0 0.2 0.1 0.3 0.1 0.1 0.2 0.1 0.4 0.1 0.1 0 0.3 0 0.4-0.1 0.1-0.1 0.2-0.2 0.2-0.3V8.5h1.2v6.3h-1.6l0-0.5c-0.1 0.2-0.3 0.4-0.4 0.5 -0.2 0.1-0.3 0.2-0.5 0.2 -0.2 0-0.4-0.1-0.6-0.2 -0.1-0.1-0.3-0.2-0.4-0.4 0-0.1-0.1-0.2-0.1-0.3 0-0.1 0-0.2 0-0.3 0-0.1 0-0.2 0-0.4L20 12.7 20 12.7zM16.1 8.6c0.3-0.2 0.6-0.3 1.1-0.3 0.4 0 0.7 0.1 1 0.2 0.3 0.1 0.5 0.3 0.6 0.5 0.1 0.2 0.2 0.4 0.3 0.6 0.1 0.3 0.1 0.6 0.1 1v1.6c0 0.6 0 1-0.1 1.3 0 0.2-0.1 0.5-0.3 0.8 -0.2 0.3-0.4 0.4-0.6 0.5 -0.3 0.1-0.6 0.2-0.9 0.2 -0.3 0-0.7 0-0.9-0.2 -0.3-0.1-0.5-0.2-0.6-0.4 -0.1-0.2-0.2-0.4-0.3-0.7 -0.1-0.3-0.1-0.7-0.1-1.3 0 0 0-1.7 0-1.7 0-0.6 0.1-1 0.2-1.4C15.6 9 15.8 8.7 16.1 8.6zM11.9 6l0.9 3.1 0.9-3.1h1.7l-1.8 4.2v4.8H12.2v-4.8l-1.9-4.2H11.9zM27.8 26c0 0.4-0.1 0.8-0.3 1.2 -0.2 0.4-0.4 0.7-0.7 0.9 -0.3 0.3-0.7 0.5-1.1 0.6 -0.4 0.2-0.8 0.2-1.3 0.2H10.6c-0.5 0-0.9-0.1-1.3-0.2 -0.4-0.2-0.8-0.4-1.1-0.6 -0.3-0.3-0.6-0.6-0.7-0.9 -0.2-0.4-0.3-0.7-0.3-1.2v-6.8c0-0.4 0.1-0.8 0.3-1.2 0.2-0.4 0.4-0.7 0.7-0.9 0.3-0.3 0.7-0.5 1.1-0.6 0.4-0.2 0.8-0.2 1.3-0.2H24.4c0.5 0 0.9 0.1 1.3 0.2s0.8 0.4 1.1 0.6c0.3 0.3 0.6 0.6 0.7 0.9 0.2 0.4 0.3 0.7 0.3 1.2V26z"/>
        <path d="M17.2 13.9c0.2 0 0.3-0.1 0.4-0.2 0.1-0.1 0.2-0.3 0.2-0.4V9.9c0-0.2-0.1-0.3-0.2-0.5 -0.1-0.1-0.3-0.2-0.4-0.2 -0.2 0-0.3 0.1-0.4 0.2 -0.1 0.1-0.2 0.3-0.2 0.5v3.4c0 0.2 0.1 0.3 0.2 0.4C16.9 13.9 17.1 13.9 17.2 13.9z"/>
        <path d="M24.7 24.7v0.2 0.5c0 0.2-0.1 0.3-0.2 0.4 -0.1 0.1-0.3 0.1-0.4 0.1h-0.2c-0.2 0-0.3 0-0.4-0.1 -0.1-0.1-0.2-0.2-0.2-0.4v-0.1 -0.6 -0.8h2.5v-0.8c0-0.3 0-0.6 0-0.9 0-0.3 0-0.5-0.1-0.7 0-0.3-0.2-0.5-0.4-0.7 -0.2-0.2-0.5-0.3-0.7-0.3 -0.3-0.1-0.6-0.1-0.9 0 -0.3 0-0.5 0.1-0.8 0.3 -0.3 0.2-0.5 0.4-0.6 0.8 -0.1 0.3-0.2 0.8-0.2 1.3v1.9c0 0.8 0.2 1.4 0.6 1.7 0.4 0.3 0.8 0.5 1.2 0.5 0 0 0.1 0 0.1 0 0.5 0 0.9-0.2 1.3-0.6 0.3-0.3 0.4-0.6 0.4-1.1 0-0.1 0-0.3-0.1-0.5H24.7v0h0V24.7zM23.3 22.1c0-0.2 0.1-0.3 0.2-0.4 0.1-0.1 0.3-0.2 0.4-0.2h0.1c0.2 0 0.3 0.1 0.5 0.2 0.1 0.1 0.2 0.2 0.2 0.4l0 0.8h-1.4L23.3 22.1z"/>
    </symbol>
    <symbol viewBox="0 0 35 35" id="ico-instagram">
        <path fill-rule="evenodd" clip-rule="evenodd" d="M17.5 35C27.165 35 35 27.165 35 17.5C35 7.83502 27.165 0 17.5 0C7.83502 0 0 7.83502 0 17.5C0 27.165 7.83502 35 17.5 35ZM27.9509 21.8178C28 21.0327 28 19.6098 28 17.5C28 16.1896 27.9811 15.1441 27.9667 14.3519C27.958 13.8687 27.9509 13.4797 27.9509 13.1822C27.8528 11.2687 27.264 9.84579 26.2336 8.76636C25.2033 7.68692 23.7313 7.1472 21.8178 7.04907C21.0327 7 19.6098 7 17.5 7C15.4393 7 13.9673 7 13.1822 7.04907C11.2687 7.1472 9.79673 7.73598 8.76635 8.76636C7.68692 9.79673 7.1472 11.2687 7.04907 13.1822C7 13.9673 7 15.4393 7 17.5C7 19.5607 7 21.0327 7.04907 21.8178C7.1472 23.7313 7.73598 25.2033 8.76635 26.2336C9.79673 27.3131 11.2687 27.8528 13.1822 27.9509C13.9673 28 15.3902 28 17.5 28C19.5607 28 21.0327 28 21.8178 27.9509C23.7313 27.8528 25.1542 27.264 26.2336 26.2336C27.3131 25.2033 27.8528 23.7313 27.9509 21.8178ZM17.5 8.86449H18.5304H19.9533C20.1057 8.86449 20.2774 8.87415 20.4685 8.8849C20.708 8.89837 20.9778 8.91355 21.278 8.91355C21.8668 8.96262 22.3084 9.01168 22.7009 9.06075C23.0935 9.10981 23.4369 9.20794 23.6822 9.30608C24.1729 9.50234 24.5654 9.74766 24.9089 10.0911C25.2523 10.4836 25.4977 10.8762 25.6939 11.3178C25.7921 11.5631 25.8902 11.9065 25.9393 12.2991C26.0374 12.6916 26.0864 13.1822 26.0864 13.722C26.1355 14.2617 26.1355 14.7032 26.1355 15.0467V15.0467V16.4696V17.5V18.5304V19.9533C26.1355 20.1057 26.1259 20.2774 26.1151 20.4685C26.1016 20.708 26.0864 20.9778 26.0864 21.278C26.0374 21.8668 25.9883 22.3084 25.9393 22.7009C25.8902 23.0935 25.7921 23.4369 25.6939 23.6822C25.4977 24.1729 25.2523 24.5654 24.9089 24.9089C24.5164 25.2523 24.1238 25.4977 23.6822 25.6939C23.4369 25.7921 23.0935 25.8902 22.7009 25.9393C22.3084 26.0374 21.8178 26.0864 21.278 26.0864C20.7383 26.1355 20.2967 26.1355 19.9533 26.1355H18.5304H17.5H16.4696H15.0467C14.7033 26.1355 14.3107 26.1355 13.722 26.0864C13.1332 26.0374 12.6916 25.9883 12.2991 25.9393C11.9065 25.8902 11.5631 25.7921 11.3178 25.6939C10.8271 25.4977 10.4346 25.2523 10.0911 24.9089C9.74766 24.5164 9.50234 24.1238 9.30607 23.6822C9.24271 23.5238 9.1998 23.3245 9.15093 23.0974C9.12412 22.9729 9.09551 22.84 9.06075 22.7009C8.96262 22.3084 8.91355 21.8178 8.91355 21.278C8.86449 20.7383 8.86449 20.2967 8.86449 19.9533V18.5304V17.5V16.4696V15.0467C8.86449 14.8943 8.87415 14.7226 8.8849 14.5315C8.89837 14.292 8.91355 14.0222 8.91355 13.722C8.96262 13.1332 9.01168 12.6916 9.06075 12.2991C9.10981 11.9065 9.20794 11.5631 9.30607 11.3178C9.50234 10.8271 9.74766 10.4346 10.0911 10.0911C10.4836 9.74766 10.8762 9.50234 11.3178 9.30608C11.5631 9.20794 11.9065 9.10981 12.2991 9.06075C12.6916 8.96262 13.1822 8.91355 13.722 8.91355C14.2617 8.86449 14.7033 8.86449 15.0467 8.86449H16.4696H17.5ZM22.8481 17.5C22.8481 15.979 22.3084 14.7033 21.278 13.6729C20.2477 12.5935 18.972 12.1028 17.4509 12.1028C15.9299 12.1028 14.6542 12.6425 13.6238 13.6729C12.5935 14.7523 12.0537 15.979 12.0537 17.5C12.0537 19.021 12.5935 20.2967 13.6238 21.3271C14.7033 22.3575 15.9299 22.8972 17.4509 22.8972C18.972 22.8972 20.2477 22.3575 21.278 21.3271C22.3084 20.2477 22.8481 19.021 22.8481 17.5ZM20.9836 17.5C20.9836 18.4322 20.6402 19.2664 19.9533 19.9533C19.2664 20.6402 18.4322 20.9836 17.4509 20.9836C16.4696 20.9836 15.6355 20.6402 14.9486 19.9533C14.2617 19.3154 13.9182 18.4813 13.9182 17.5C13.9182 16.5187 14.2617 15.6846 14.9486 14.9977C15.6355 14.3107 16.4696 13.9673 17.4509 13.9673C18.4322 13.9673 19.2664 14.3107 19.9533 14.9977C20.6402 15.6846 20.9836 16.5678 20.9836 17.5ZM24.3692 11.8575C24.3692 11.514 24.222 11.2196 23.9766 10.9743C23.7313 10.729 23.4369 10.5818 23.0935 10.5818C22.75 10.5818 22.4556 10.729 22.2103 10.9743C21.965 11.2196 21.8178 11.514 21.8178 11.8575C21.8178 12.2009 21.965 12.4953 22.2103 12.7407C22.4556 12.986 22.75 13.1332 23.0935 13.1332C23.4369 13.1332 23.7313 12.986 23.9766 12.7407C24.222 12.4953 24.3692 12.2009 24.3692 11.8575Z"/>
    </symbol>
    <symbol viewBox="0 0 35 35" id="ico-telegram">
        <path fill-rule="evenodd" clip-rule="evenodd" d="M35 17.5C35 27.165 27.165 35 17.5 35C7.83502 35 0 27.165 0 17.5C0 7.83502 7.83502 0 17.5 0C27.165 0 35 7.83502 35 17.5ZM11.1631 18.9091L6.4205 17.3926C6.4205 17.3926 5.8537 17.1669 6.03621 16.6552C6.07378 16.5497 6.14957 16.4599 6.37629 16.3056C7.42712 15.5867 25.8264 9.09675 25.8264 9.09675C25.8264 9.09675 26.3459 8.92495 26.6523 9.03922C26.7281 9.06224 26.7963 9.10462 26.85 9.162C26.9036 9.21938 26.9407 9.28971 26.9576 9.36581C26.9907 9.5002 27.0045 9.63848 26.9987 9.77663C26.9978 9.84987 26.9919 9.91982 26.9849 10.003C26.9805 10.0555 26.9757 10.1134 26.9713 10.1806C26.8593 11.955 23.5058 25.1979 23.5058 25.1979C23.5058 25.1979 23.3051 25.9728 22.5863 25.9993C22.4096 26.0049 22.2336 25.9756 22.0688 25.913C21.9039 25.8504 21.7536 25.7559 21.6268 25.6351C20.8921 25.0149 19.2177 23.8456 17.6295 22.7674C17.1319 23.2487 16.1988 24.1789 15.2376 25.2808C13.8261 26.8989 14.0076 25.2808 14.0076 25.2808L14.3914 20.6057L14.263 20.5214C14.2387 20.5051 14.2182 20.4839 14.203 20.4593C14.1877 20.4346 14.178 20.407 14.1746 20.3783C14.1595 20.3038 14.2421 20.2115 14.2421 20.2115C14.2421 20.2115 14.3115 20.151 14.4378 20.0403L14.4411 20L14.4652 20.0163C15.807 18.8409 22.7539 12.7304 22.9579 12.0281C22.9754 11.9679 22.9094 11.9382 22.8206 11.9645C22.2573 12.1679 12.5004 18.2145 11.4059 18.8928L11.4028 18.8948C11.3251 18.9178 11.243 18.9227 11.1631 18.9091Z"/>
    </symbol>
    <symbol viewBox="0 0 35 35" id="ico-envelope">
        <path fill-rule="evenodd" clip-rule="evenodd" d="M17.5 35C27.165 35 35 27.165 35 17.5C35 7.83502 27.165 0 17.5 0C7.83502 0 0 7.83502 0 17.5C0 27.165 7.83502 35 17.5 35ZM16.75 20.08C17.375 20.3825 17.6675 20.5 18 20.5C18.3325 20.5 18.625 20.3825 19.25 20.08L28 15.5V24.25C28 24.9375 27.4375 25.5 26.75 25.5H9.25C8.5625 25.5 8 24.9375 8 24.25V15.5L16.75 20.08ZM9.25 10.5H26.75C27.4375 10.5 28 11.0625 28 11.75V12.6975L18 17.9538L8 12.6975V11.75C8 11.0625 8.5625 10.5 9.25 10.5Z"/>
    </symbol>
    <symbol viewBox="0 0 112.2 112.2" width="35" height="35" id="ico-pinterest">
        <circle cx="56.1" cy="56.1" r="56.1"/><path d="M60.6 75.1c-4.2-0.3-6-2.4-9.3-4.4 -1.8 9.6-4.1 18.8-10.7 23.6 -2-14.5 3-25.4 5.3-36.9 -4-6.7 0.5-20.2 8.9-16.9 10.4 4.1-9 25 4 27.6 13.6 2.7 19.1-23.5 10.7-32 -12.1-12.3-35.3-0.3-32.5 17.4 0.7 4.3 5.2 5.6 1.8 11.6 -7.8-1.7-10.1-7.8-9.8-16 0.5-13.4 12-22.7 23.6-24 14.6-1.6 28.4 5.4 30.3 19.1C85 59.5 76.3 76.3 60.6 75.1L60.6 75.1z" fill="#fff"/>
    </symbol>
    <symbol viewBox="0 0 100 100" id="logo-raccoon">
        <path d="M68.6 10.2v12.6L57.3 20.3h0L50 20.3v0l-7.2 0h0l-11.3 2.5V10.2L12.8 28.9 0.9 40.7l0 0 9.2 9.2 13.5 13.5 9.3 9.3L50 89.8v0l17.1-17.1 9.3-9.3 13.4-13.5 9.2-9.2 -11.8-11.9L68.6 10.2zM64.3 71.8l0 0L50 66.7v0l-14.3 5.2 0 0 -9.7-9.8 9.6-5.9L50 53v0l14.4 3.1 9.6 5.9L64.3 71.8zM95.3 40.7l-7.5 7.6h0l-9.5-7.5 -9.6-3.9 -7.9 3.9L50 46V45.9l-10.7-5.2 -7.9-3.9 -9.6 3.9 -9.5 7.5 0 0 -7.5-7.6 0 0 12.6-12.6 11.6-11.6 0 9.9 0.1 0 14.7-3.6 0 0H50v0h6.4l14.7 3.6 0.1 0 0-9.9L82.7 28.1l12.6 12.6V40.7z"/>
    </symbol>
    <symbol viewBox="0 0 65 53" id="logo-raccoon-colored">
        <g transform="translate(-7.698 -13.369)">
            <g transform="translate(10.067 17.589)">
                <path d="M26.35,17.589l-7.915,7.886,7.876-1.284Z" transform="translate(-10.067 -17.589)" fill="#c6c6c6" />
                <path d="M18.4,25.443l-8.335,8.364,12.59.086L26.279,24.2v-.045Z" transform="translate(-10.067 -17.589)" fill="#dbdadb" />
                <path d="M15.182,39.075l7.475-5.182-12.59-.086Z" transform="translate(-10.067 -17.589)" fill="#c6c6c6" />
                <path d="M22.657,33.893l5.477-2.585-1.855-7.1Z" transform="translate(-10.067 -17.589)" fill="#b7b7b7" />
            </g>
            <path d="M26.279,24.2l1.855,7.1,4.97,2.525,7.317,3.486-4.193-15.53Z" transform="translate(-0.203 -0.058)" fill="#fff" />
            <path d="M36.228,21.789l4.193,15.53,4.307-15.53Z" transform="translate(-0.28 -0.058)" fill="#e4e4e5" />
            <path d="M44.728,21.789l-4.307,15.53L47.6,33.833l5.136-2.6,1.858-7.05Z" transform="translate(-0.357 -0.058)" fill="#b9b9b9" />
            <g transform="translate(52.179 17.597)">
                <path d="M54.609,17.6,54.6,24.163l7.751,1.193Z" transform="translate(-52.74 -17.597)" fill="#c6c6c6" />
                <path d="M52.74,31.234l6.555,2.6-4.7-9.649Z" transform="translate(-52.74 -17.597)" fill="#fff" />
                <path d="M62.349,25.356,54.6,24.163v.021l4.7,9.649,11.424-.085Z" transform="translate(-52.74 -17.597)" fill="#e9e8e9" />
                <path d="M59.295,33.833l6.373,5.011,5.051-5.1Z" transform="translate(-52.74 -17.597)" fill="#c6c6c6" />
            </g>
            <g transform="translate(15.192 31.174)">
                <path d="M15.192,39.071,24.2,48.086l6.4-3.966L22.667,33.888Z" transform="translate(-15.192 -31.303)" fill="#191c1a" />
                <path d="M22.667,33.888,30.6,44.12,28.144,31.3Z" transform="translate(-15.192 -31.303)" />
            </g>
            <path d="M33.114,33.828,28.144,31.3,30.6,44.12l9.831-2.095V37.314Z" transform="translate(-0.215 -0.116)" fill="#464749" />
            <path d="M47.614,33.828l-7.183,3.486v4.711l9.674,2.06L52.75,31.229Z" transform="translate(-0.345 -0.116)" fill="#181a19" />
            <g transform="translate(49.543 31.101)">
                <path d="M52.75,31.229,50.1,44.085l9.2-10.257Z" transform="translate(-50.104 -31.229)" fill="#393b3c" />
                <path d="M59.305,33.828,50.1,44.085l6.446,3.973,9.183-9.181Z" transform="translate(-50.104 -31.229)" fill="#46474a" />
            </g>
            <path d="M24.214,48.025l6.571,6.651,9.644-3.57-9.766-7.054Z" transform="translate(-0.188 -0.189)" fill="#b9b9b9" />
            <path d="M30.663,44.052l9.766,7.054.065-9.15Z" transform="translate(-0.231 -0.17)" fill="#e4e4e5" />
            <path d="M40.494,41.956l-.065,9.15,9.738-7.089Z" transform="translate(-0.329 -0.17)" fill="#e4e4e5" />
            <path d="M50.167,44.017l-9.738,7.089L50.055,54.6l6.656-6.531Z" transform="translate(-0.373 -0.188)" fill="#fff" />
            <path d="M30.668,54.659l9.762,9.834V51.106Z" transform="translate(-0.231 -0.262)" fill="#181a19" />
            <path d="M40.429,51.106V64.493l9.762-9.849Z" transform="translate(-0.329 -0.262)" fill="#46474a" />
            <path d="M10.067,33.807l8.37-8.369-2.745.449L7.7,33.881l2.38-.064Z" transform="translate(0 -0.071)" fill="#464749" />
            <path d="M36.228,21.789h8.5l.008,0,.59-1.643h0l-9.864.031.72,1.624Z" transform="translate(-0.28)" fill="#393b3c" />
            <path d="M70.719,33.748l0,0,2.541.073L65.35,25.9l-3.018-.56Z" transform="translate(-0.561 -0.07)" fill="#464749" />
            <path d="M54.6,24.184l.011-6.587,7.723,7.742,3.018.56L52.883,13.406v8.343l1.662,2.422Z" transform="translate(-0.561)" fill="#181a19" />
            <path d="M54.546,24.171l-1.662-2.422v.04l-7.558-1.641-.59,1.643Z" transform="translate(-0.373)" fill="#464749" />
            <path d="M40.429,64.306v2.315l.01.01L51.93,55.145l-1.867-.558Z" transform="translate(-0.34 -0.262)" fill="#46474a" />
            <path d="M73.258,33.823l-2.541-.073L65.68,38.832l-9.08,9.16-6.537,6.6,1.867.558,6.218-6.216,8.986-8.982,6.125-6.123Z" transform="translate(-0.561 -0.168)" fill="#46474a" />
            <path d="M40.429,64.306l-.042.042-9.621-9.691L24.187,48.03l-8.924-8.99-5.2-5.233L7.7,33.881l6.218,6.228,8.779,8.779,6.3,6.3,11.43,11.429Z" transform="translate(0 -0.262)" fill="#181a19" />
            <path d="M35.458,20.178H35.35L28.1,21.789v-.023l.107-8.4L15.692,25.887l2.745-.449,7.868-7.868L26.291,24.2l.11-.027L36.178,21.8Z" fill="#181a19" />
        </g>
    </symbol>
    <symbol viewBox="0 0 451.8 451.8" id="ico-arrow-down">
        <path d="M225.9 354.7c-8.1 0-16.2-3.1-22.4-9.3L9.3 151.2c-12.4-12.4-12.4-32.4 0-44.8 12.4-12.4 32.4-12.4 44.7 0l171.9 171.9 171.9-171.9c12.4-12.4 32.4-12.4 44.7 0 12.4 12.4 12.4 32.4 0 44.8L248.3 345.4C242.1 351.6 234 354.7 225.9 354.7z"/>
    </symbol>
</svg>
